REM DIRINDEX 1\2,1\3,1\4,1\5,1\6
REM DIRNAME "folder01","folder02","folder03","folder04","folder05","folder06"
TITLE ""
FILE "Disc2Track31.mp3" MP3
  TRACK 01 AUDIO
    TITLE "3:cjc161_02886"
    INDEX 01 00:00:00
  TRACK 02 AUDIO
    TITLE "4:cjc161_02887"
    INDEX 01 00:01:06
  TRACK 03 AUDIO
    TITLE "5:cjc161_02888"
    INDEX 01 00:03:22
  TRACK 04 AUDIO
    TITLE "6:cjc161_02889"
    INDEX 01 00:04:39
  TRACK 05 AUDIO
    TITLE "0:"
    INDEX 01 00:08:33
  TRACK 06 AUDIO
    TITLE "3:cjc161_02890"
    INDEX 01 00:08:67
  TRACK 07 AUDIO
    TITLE "4:cjc161_02891"
    INDEX 01 00:10:26
  TRACK 08 AUDIO
    TITLE "5:cjc161_02892"
    INDEX 01 00:12:17
  TRACK 09 AUDIO
    TITLE "6:cjc161_02893"
    INDEX 01 00:13:52
  TRACK 10 AUDIO
    TITLE "0:"
    INDEX 01 00:16:39
  TRACK 11 AUDIO
    TITLE "3:cjc161_02894"
    INDEX 01 00:16:70
  TRACK 12 AUDIO
    TITLE "4:cjc161_02895"
    INDEX 01 00:18:30
  TRACK 13 AUDIO
    TITLE "5:cjc161_02896"
    INDEX 01 00:19:23
  TRACK 14 AUDIO
    TITLE "0:"
    INDEX 01 00:20:58
  TRACK 15 AUDIO
    TITLE "3:cjc161_02897"
    INDEX 01 00:21:14
  TRACK 16 AUDIO
    TITLE "4:cjc161_02898"
    INDEX 01 00:22:43
  TRACK 17 AUDIO
    TITLE "5:cjc161_02899"
    INDEX 01 00:24:72
  TRACK 18 AUDIO
    TITLE "0:"
    INDEX 01 00:26:27
  TRACK 19 AUDIO
    TITLE "3:cjc161_02900"
    INDEX 01 00:26:63
  TRACK 20 AUDIO
    TITLE "4:cjc161_02901"
    INDEX 01 00:28:30
  TRACK 21 AUDIO
    TITLE "5:cjc161_02902"
    INDEX 01 00:30:27
  TRACK 22 AUDIO
    TITLE "6:cjc161_02903"
    INDEX 01 00:31:68
  TRACK 23 AUDIO
    TITLE "0:"
    INDEX 01 00:36:32
  TRACK 24 AUDIO
    TITLE "3:cjc161_02904"
    INDEX 01 00:36:65
  TRACK 25 AUDIO
    TITLE "4:cjc161_02905"
    INDEX 01 00:38:21
  TRACK 26 AUDIO
    TITLE "5:cjc161_02906"
    INDEX 01 00:40:51
  TRACK 27 AUDIO
    TITLE "6:cjc161_02907"
    INDEX 01 00:42:05
  TRACK 28 AUDIO
    TITLE "0:"
    INDEX 01 00:44:33
  TRACK 29 AUDIO
    TITLE "3:cjc161_02908"
    INDEX 01 00:44:64
  TRACK 30 AUDIO
    TITLE "4:cjc161_02909"
    INDEX 01 00:46:40
  TRACK 31 AUDIO
    TITLE "5:cjc161_02910"
    INDEX 01 00:48:11
  TRACK 32 AUDIO
    TITLE "0:"
    INDEX 01 00:49:64
  TRACK 33 AUDIO
    TITLE "3:cjc161_02911"
    INDEX 01 00:50:22
  TRACK 34 AUDIO
    TITLE "4:cjc161_02912"
    INDEX 01 00:51:64
  TRACK 35 AUDIO
    TITLE "5:cjc161_02913"
    INDEX 01 00:52:60
  TRACK 36 AUDIO
    TITLE "6:cjc161_02914"
    INDEX 01 00:54:26
  TRACK 37 AUDIO
    TITLE "0:"
    INDEX 01 00:59:31
  TRACK 38 AUDIO
    TITLE "3:cjc161_02915"
    INDEX 01 00:59:62
  TRACK 39 AUDIO
    TITLE "4:cjc161_02916"
    INDEX 01 01:01:10
  TRACK 40 AUDIO
    TITLE "5:cjc161_02917"
    INDEX 01 01:03:11
  TRACK 41 AUDIO
    TITLE "6:cjc161_02918"
    INDEX 01 01:04:32
  TRACK 42 AUDIO
    TITLE "0:"
    INDEX 01 01:08:22
  TRACK 43 AUDIO
    TITLE "3:cjc161_02919"
    INDEX 01 01:08:55
  TRACK 44 AUDIO
    TITLE "4:cjc161_02920"
    INDEX 01 01:10:09
  TRACK 45 AUDIO
    TITLE "5:cjc161_02921"
    INDEX 01 01:11:08
  TRACK 46 AUDIO
    TITLE "6:cjc161_02922"
    INDEX 01 01:12:35
  TRACK 47 AUDIO
    TITLE "0:"
    INDEX 01 01:17:27
  TRACK 48 AUDIO
    TITLE "3:cjc161_02923"
    INDEX 01 01:17:58
  TRACK 49 AUDIO
    TITLE "4:cjc161_02924"
    INDEX 01 01:19:22
  TRACK 50 AUDIO
    TITLE "5:cjc161_02925"
    INDEX 01 01:21:60
  TRACK 51 AUDIO
    TITLE "6:cjc161_02926"
    INDEX 01 01:23:21
  TRACK 52 AUDIO
    TITLE "0:"
    INDEX 01 01:26:20
  TRACK 53 AUDIO
    TITLE "3:cjc161_02927"
    INDEX 01 01:26:53
  TRACK 54 AUDIO
    TITLE "4:cjc161_02928"
    INDEX 01 01:28:05
  TRACK 55 AUDIO
    TITLE "5:cjc161_02929"
    INDEX 01 01:32:32
  TRACK 56 AUDIO
    TITLE "6:cjc161_02930"
    INDEX 01 01:33:57
  TRACK 57 AUDIO
    TITLE "0:"
    INDEX 01 01:37:74
  TRACK 58 AUDIO
    TITLE "3:cjc161_02931"
    INDEX 01 01:38:31
  TRACK 59 AUDIO
    TITLE "4:cjc161_02932"
    INDEX 01 01:39:67
  TRACK 60 AUDIO
    TITLE "5:cjc161_02933"
    INDEX 01 01:41:57
  TRACK 61 AUDIO
    TITLE "0:"
    INDEX 01 01:43:22
  TRACK 62 AUDIO
    TITLE "3:cjc161_02934"
    INDEX 01 01:43:61
  TRACK 63 AUDIO
    TITLE "4:cjc161_02935"
    INDEX 01 01:45:13
  TRACK 64 AUDIO
    TITLE "5:cjc161_02936"
    INDEX 01 01:47:18
  TRACK 65 AUDIO
    TITLE "6:cjc161_02937"
    INDEX 01 01:48:45
  TRACK 66 AUDIO
    TITLE "0:"
    INDEX 01 01:50:28
  TRACK 67 AUDIO
    TITLE "3:cjc161_02938"
    INDEX 01 01:50:59
  TRACK 68 AUDIO
    TITLE "4:cjc161_02939"
    INDEX 01 01:52:19
  TRACK 69 AUDIO
    TITLE "5:cjc161_02940"
    INDEX 01 01:54:30
  TRACK 70 AUDIO
    TITLE "6:cjc161_02941"
    INDEX 01 01:55:64
  TRACK 71 AUDIO
    TITLE "0:"
    INDEX 01 01:58:00
